<svg width="270" height="270" viewBox="0 0 270 270" fill="none" xmlns="http://www.w3.org/2000/svg">
<path d="M135 270C209.558 270 270 209.558 270 135C270 60.4416 209.558 0 135 0C60.4416 0 0 60.4416 0 135C0 209.558 60.4416 270 135 270Z" fill="#FCFCF7"/>
<path d="M21.3311 87.8022L24.9741 79.8301L26.8506 80.6875L24.1714 86.5503L26.5756 87.6485L29.0493 82.2354L30.895 83.0786L28.4213 88.4917L30.9804 89.661L33.7023 83.7054L35.5947 84.5702L31.909 92.6357L21.3311 87.8022Z" fill="#151516"/>
<path d="M28.7139 73.0864L30.3655 70.3389L42.7669 72.2825L41.4489 74.475L38.9519 74.028L35.9385 79.0409L37.4956 81.0512L36.23 83.1559L28.7139 73.0864ZM36.8084 73.6551L31.0276 72.6469L34.612 77.309L36.8084 73.6551Z" fill="#151516"/>
<path d="M46.8742 65.8777C45.9023 66.2068 44.9886 66.1834 44.1318 65.8071L45.0022 63.6232C45.5773 63.8225 46.1369 63.8128 46.6823 63.5942C47.2277 63.3761 47.7703 62.9446 48.31 62.299C48.8713 61.6277 49.189 61.0487 49.263 60.5614C49.3365 60.0752 49.1993 59.6852 48.8503 59.3937C48.5628 59.1529 48.2559 59.063 47.9302 59.1244C47.6052 59.1854 47.255 59.3863 46.8821 59.7262L44.877 61.5395C44.0856 62.2557 43.2795 62.6565 42.4602 62.7413C41.6404 62.8267 40.8775 62.5739 40.171 61.983C39.6393 61.5384 39.2812 61.0049 39.0961 60.3838C38.9117 59.7627 38.9276 59.0795 39.1434 58.3337C39.3592 57.5879 39.7919 56.8272 40.4409 56.0507C41.2943 55.0305 42.1614 54.3701 43.0427 54.0695C43.9234 53.7694 44.7671 53.7484 45.5733 54.0074L44.8098 56.1697C44.3282 56.0188 43.8482 56.0393 43.3689 56.2312C42.8895 56.423 42.4272 56.7857 41.9826 57.3174C41.4645 57.9369 41.1747 58.4828 41.1121 58.9565C41.0495 59.4302 41.1838 59.8059 41.5152 60.0826C42.056 60.5346 42.7375 60.4014 43.5619 59.6824L45.5892 57.8435C46.3663 57.1449 47.16 56.7675 47.9701 56.7111C48.7802 56.6547 49.534 56.9189 50.232 57.5025C51.0865 58.217 51.4942 59.0988 51.4543 60.1475C51.415 61.1962 50.8696 62.3485 49.8192 63.6044C48.8275 64.792 47.846 65.5492 46.8742 65.8777Z" fill="#151516"/>
<path d="M46.3848 49.5999L50.666 45.4905C51.3139 44.8688 51.9977 44.4487 52.7179 44.23C53.438 44.0114 54.1337 43.9932 54.8055 44.176C55.4773 44.3587 56.0728 44.7208 56.5926 45.2622C57.1124 45.8036 57.446 46.4094 57.5923 47.0795C57.7398 47.7501 57.6874 48.4345 57.4358 49.1324C57.1847 49.831 56.7304 50.4948 56.074 51.1245L53.4659 53.6278L56.111 56.3833L54.4378 57.9893L46.3848 49.5999ZM54.596 49.6835C55.0634 49.2349 55.3145 48.7578 55.3492 48.2517C55.384 47.7461 55.216 47.3004 54.846 46.915C54.4679 46.5216 54.0239 46.3291 53.5132 46.3388C53.0025 46.3485 52.5135 46.5773 52.0455 47.0265L49.4864 49.4826L52.0369 52.1396L54.596 49.6835Z" fill="#151516"/>
<path d="M65.455 47.2868C64.3664 47.4815 63.3297 47.3802 62.3437 46.98C61.3582 46.5809 60.5048 45.8983 59.784 44.9321C59.0638 43.966 58.6545 42.9521 58.5571 41.8903C58.4598 40.8285 58.6596 39.8032 59.1572 38.8154C59.6542 37.8276 60.4085 36.9566 61.4202 36.2017C62.4313 35.4473 63.4817 34.9725 64.5703 34.7778C65.6588 34.5825 66.6984 34.6833 67.6884 35.079C68.6784 35.4752 69.5341 36.1561 70.2549 37.1217C70.9757 38.0878 71.3839 39.1018 71.4818 40.1635C71.5791 41.2259 71.3793 42.2507 70.8817 43.2384C70.3847 44.2262 69.6303 45.0973 68.6187 45.8522C67.5979 46.6133 66.5429 47.0916 65.455 47.2868ZM63.4214 44.8035C64.0493 45.0654 64.7029 45.1382 65.3821 45.0215C66.0613 44.9048 66.7149 44.6122 67.3434 44.1431C67.9719 43.674 68.4393 43.1308 68.7445 42.5131C69.0497 41.8954 69.1641 41.2498 69.0872 40.5769C69.0109 39.9039 68.7342 39.2481 68.2583 38.6104C67.7829 37.9722 67.233 37.5208 66.6096 37.2555C65.9862 36.9902 65.3348 36.9156 64.6557 37.0317C63.977 37.1484 63.3229 37.4411 62.6944 37.9102C62.0658 38.3793 61.5984 38.9224 61.2933 39.5401C60.9881 40.1578 60.872 40.8052 60.9437 41.4815C61.016 42.1584 61.2898 42.8154 61.7658 43.4531C62.2417 44.0918 62.7934 44.5416 63.4214 44.8035Z" fill="#151516"/>
<path d="M70.1504 30.3766L75.3141 27.452C76.0952 27.0096 76.8632 26.7677 77.617 26.7261C78.3708 26.6846 79.0517 26.8314 79.6597 27.1662C80.2677 27.5015 80.7562 27.9951 81.1263 28.6481C81.6364 29.5488 81.7713 30.462 81.5316 31.3877C81.2919 32.314 80.693 33.1201 79.736 33.8061L81.58 33.4281L85.4081 35.1008L82.96 36.4876L78.6104 34.4831L75.9842 35.9707L77.8999 39.3536L75.8823 40.4962L70.1504 30.3766ZM78.0383 32.4352C78.6019 32.1158 78.976 31.715 79.1598 31.2317C79.3437 30.7489 79.301 30.2701 79.0317 29.7953C78.763 29.3205 78.3742 29.0375 77.8652 28.947C77.3562 28.8565 76.8205 28.9704 76.2563 29.2897L73.1849 31.0296L74.9662 34.1751L78.0383 32.4352Z" fill="#151516"/>
<path d="M86.3023 24.3102L82.5255 25.9305L81.7051 24.0187L91.3897 19.8633L92.2101 21.7751L88.4333 23.3953L92.1987 32.1714L90.0672 33.0857L86.3023 24.3102Z" fill="#151516"/>
<path d="M98.6078 29.0492C97.6137 28.7976 96.8594 28.2807 96.3441 27.5001L98.2622 26.14C98.6362 26.6194 99.1116 26.916 99.6883 27.0293C100.265 27.1432 100.955 27.0754 101.759 26.8272C102.595 26.5687 103.177 26.255 103.503 25.8867C103.829 25.5183 103.925 25.1164 103.791 24.682C103.68 24.3239 103.471 24.0819 103.165 23.9561C102.858 23.8309 102.456 23.8092 101.958 23.8918L99.2892 24.3239C98.2354 24.4947 97.3416 24.3933 96.6072 24.0193C95.8728 23.6453 95.37 23.0184 95.0979 22.1389C94.893 21.4762 94.8821 20.834 95.0649 20.2123C95.2476 19.5906 95.6319 19.0258 96.2189 18.5169C96.8053 18.0084 97.5818 17.6048 98.5485 17.3059C99.8193 16.9137 100.906 16.8305 101.81 17.0566C102.712 17.2837 103.432 17.7244 103.968 18.3796L102.152 19.7796C101.83 19.3913 101.415 19.1477 100.908 19.048C100.402 18.949 99.817 19.0013 99.1549 19.2063C98.3834 19.4448 97.8426 19.7454 97.5329 20.1092C97.2226 20.473 97.1315 20.8607 97.259 21.2735C97.4674 21.947 98.1124 22.2055 99.1947 22.0495L101.896 21.6077C102.928 21.4437 103.799 21.5581 104.51 21.9515C105.22 22.3449 105.71 22.9757 105.979 23.8445C106.308 24.9091 106.17 25.8707 105.567 26.7293C104.964 27.5878 103.88 28.259 102.316 28.7424C100.838 29.199 99.6024 29.3014 98.6078 29.0492Z" fill="#151516"/>
<path d="M111.911 14.1269L120.318 12.8066L120.638 14.8454L114.523 15.8058L115.017 18.9564L120.695 18.0649L121.017 20.1201L115.34 21.0116L116.007 25.257L113.716 25.6169L111.911 14.1269Z" fill="#151516"/>
<path d="M126.958 23.3507C125.949 22.8969 125.151 22.2274 124.563 21.341C123.974 20.4551 123.656 19.4099 123.606 18.2058C123.557 17.0017 123.792 15.9342 124.311 15.0022C124.83 14.0708 125.574 13.3375 126.542 12.8029C127.51 12.2684 128.625 11.9752 129.885 11.9234C131.146 11.8721 132.281 12.0725 133.289 12.5263C134.297 12.98 135.098 13.6501 135.693 14.5354C136.286 15.4218 136.608 16.4665 136.658 17.6706C136.707 18.8747 136.472 19.9428 135.953 20.8736C135.433 21.8056 134.69 22.5383 133.722 23.0729C132.754 23.6075 131.639 23.9007 130.379 23.9525C129.107 24.0048 127.966 23.8039 126.958 23.3507ZM126.682 20.1534C127.052 20.7244 127.551 21.1531 128.177 21.4406C128.803 21.7281 129.508 21.8557 130.292 21.8232C131.076 21.7913 131.768 21.6069 132.368 21.2687C132.969 20.9311 133.427 20.4631 133.744 19.8642C134.061 19.2653 134.203 18.5684 134.171 17.7731C134.138 16.9783 133.94 16.2951 133.575 15.7241C133.21 15.1531 132.715 14.7238 132.088 14.4369C131.462 14.15 130.757 14.0219 129.973 14.0543C129.19 14.0868 128.498 14.2712 127.897 14.6088C127.296 14.9464 126.835 15.415 126.512 16.0139C126.19 16.6134 126.045 17.3102 126.077 18.105C126.11 18.8998 126.311 19.5824 126.682 20.1534Z" fill="#151516"/>
<path d="M142.098 23.2873C141.159 22.7032 140.457 21.9335 139.991 20.9765C139.527 20.02 139.35 18.9417 139.461 17.7416C139.572 16.542 139.947 15.515 140.586 14.6605C141.225 13.8065 142.06 13.1785 143.09 12.7777C144.121 12.3763 145.264 12.2346 146.52 12.3507C147.777 12.4669 148.874 12.8176 149.814 13.4011C150.753 13.9847 151.457 14.7555 151.928 15.7125C152.399 16.6696 152.579 17.7484 152.467 18.948C152.356 20.1475 151.981 21.1752 151.342 22.0291C150.703 22.8831 149.869 23.5111 148.838 23.9119C147.808 24.3127 146.664 24.455 145.408 24.3389C144.14 24.2216 143.037 23.8709 142.098 23.2873ZM142.25 20.0815C142.541 20.6969 142.977 21.1882 143.56 21.556C144.142 21.9244 144.824 22.1447 145.605 22.217C146.387 22.2893 147.097 22.1988 147.738 21.9443C148.377 21.6898 148.894 21.2867 149.288 20.7351C149.682 20.184 149.916 19.5122 149.989 18.7191C150.063 17.9266 149.956 17.2235 149.671 16.6087C149.385 15.9938 148.951 15.503 148.369 15.1347C147.787 14.7669 147.104 14.5466 146.324 14.4737C145.543 14.4014 144.832 14.4925 144.192 14.747C143.552 15.0015 143.032 15.4046 142.633 15.9551C142.233 16.5062 141.997 17.178 141.924 17.9705C141.85 18.763 141.958 19.4666 142.25 20.0815Z" fill="#151516"/>
<path d="M159.003 16.4835L154.982 15.633L155.413 13.5977L165.723 15.7793L165.292 17.8146L161.272 16.964L159.294 26.3065L157.026 25.8266L159.003 16.4835Z" fill="#151516"/>
<path d="M169.168 16.7329L174.962 18.6595C176.148 19.054 176.974 19.6342 177.438 20.3993C177.902 21.165 177.98 22.0116 177.672 22.939C177.503 23.4463 177.234 23.8568 176.866 24.1716C176.498 24.4864 176.068 24.6817 175.575 24.7574C176.046 25.1417 176.353 25.6154 176.495 26.1779C176.637 26.7404 176.619 27.2915 176.44 27.8306C176.095 28.8662 175.507 29.5545 174.674 29.8944C173.843 30.2348 172.822 30.2041 171.614 29.8022L165.498 27.768L169.168 16.7329ZM172.212 27.8448C172.698 28.0065 173.118 28.0202 173.474 27.887C173.83 27.7538 174.079 27.4714 174.223 27.0398C174.366 26.6083 174.333 26.2291 174.125 25.9018C173.917 25.575 173.574 25.3324 173.1 25.1747L169.184 23.8722L168.296 26.5422L172.212 27.8448ZM173.492 23.185C173.924 23.3285 174.314 23.3267 174.663 23.1787C175.011 23.0313 175.252 22.758 175.385 22.3589C175.521 21.949 175.496 21.5932 175.309 21.2914C175.122 20.9897 174.796 20.7614 174.332 20.6071L170.675 19.3905L169.82 21.9638L173.492 23.185Z" fill="#151516"/>
<path d="M185.868 22.9966L188.769 24.3618L188.091 36.8965L185.777 35.8068L185.968 33.2773L180.676 30.7866L178.834 32.5389L176.612 31.4936L185.868 22.9966ZM186.122 31.1071L186.54 25.2539L182.264 29.2921L186.122 31.1071Z" fill="#151516"/>
<path d="M195.889 28.061L197.866 29.2737L192.872 37.4132L198.206 40.6862L197.118 42.4596L189.807 37.974L195.889 28.061Z" fill="#151516"/>
<path d="M206.031 34.5249L207.88 35.9243L202.116 43.5389L207.107 47.3158L205.851 48.9747L199.012 43.7979L206.031 34.5249Z" fill="#151516"/>
<path d="M213.286 55.018C212.944 53.9557 212.906 52.9081 213.17 51.8748C213.434 50.8415 213.999 49.9055 214.864 49.0658C215.728 48.2266 216.679 47.6881 217.716 47.4495C218.752 47.2115 219.794 47.277 220.842 47.6465C221.89 48.0154 222.857 48.657 223.744 49.5702C224.742 50.5978 225.392 51.675 225.693 52.8005C225.994 53.9266 225.904 55.0004 225.422 56.0229L223.291 54.9787C223.55 54.2995 223.583 53.6266 223.387 52.9599C223.191 52.2938 222.805 51.663 222.227 51.0675C221.665 50.4885 221.053 50.0877 220.393 49.8646C219.733 49.642 219.072 49.6141 218.411 49.7814C217.749 49.9488 217.141 50.3018 216.587 50.8398C215.722 51.6795 215.306 52.6138 215.34 53.6431C215.373 54.6724 215.828 55.6403 216.708 56.5455C217.262 57.116 217.865 57.5054 218.518 57.7115C219.17 57.9176 219.839 57.9016 220.526 57.6631L221.568 59.7644C220.524 60.2392 219.442 60.3201 218.321 60.0058C217.2 59.6921 216.145 59.0249 215.154 58.0052C214.251 57.0761 213.629 56.0798 213.286 55.018Z" fill="#151516"/>
<path d="M229.881 56.6611L231.301 58.4949L223.75 64.3424L227.582 69.2903L225.937 70.5639L220.685 63.7822L229.881 56.6611Z" fill="#151516"/>
<path d="M228.621 72.5234C228.867 71.2351 229.681 70.163 231.063 69.3079L236.777 65.7725L237.988 67.7298L232.377 71.2026C231.535 71.723 231.046 72.3737 230.907 73.1548C230.769 73.9353 230.948 74.7273 231.444 75.5294C231.917 76.2929 232.529 76.7762 233.283 76.9783C234.036 77.1804 234.834 77.0216 235.675 76.5013L241.287 73.029L242.498 74.9863L236.799 78.5126C235.397 79.3803 234.072 79.6484 232.825 79.3177C231.577 78.9863 230.508 78.101 229.617 76.6607C228.707 75.1907 228.376 73.8118 228.621 72.5234Z" fill="#151516"/>
<path d="M244.532 78.8198L247.102 84.3576C247.629 85.4922 247.772 86.4908 247.534 87.3533C247.295 88.2158 246.732 88.8535 245.845 89.2645C245.36 89.49 244.877 89.5759 244.396 89.5241C243.914 89.4718 243.477 89.2924 243.084 88.9861C243.127 89.5924 242.993 90.1401 242.681 90.6298C242.369 91.1194 241.956 91.4837 241.44 91.7228C240.45 92.1823 239.546 92.2261 238.728 91.8538C237.909 91.4814 237.232 90.7174 236.696 89.5628L233.982 83.716L244.532 78.8198ZM238.531 88.6548C238.746 89.1188 239.024 89.4348 239.366 89.6027C239.707 89.7701 240.083 89.7581 240.495 89.5668C240.908 89.3755 241.162 89.0914 241.257 88.7151C241.352 88.3388 241.294 87.9238 241.083 87.47L239.345 83.7268L236.794 84.9115L238.531 88.6548ZM242.801 86.3912C242.992 86.8034 243.261 87.0863 243.608 87.2389C243.954 87.3915 244.318 87.3789 244.7 87.2019C245.092 87.0203 245.333 86.7578 245.425 86.4145C245.516 86.0712 245.459 85.6778 245.253 85.2343L243.63 81.7387L241.171 82.8802L242.801 86.3912Z" fill="#151516"/>
<path d="M52.9484 213.784L50.0716 210.849L51.5575 209.393L58.9342 216.92L57.4482 218.376L54.5715 215.441L47.7516 222.125L46.1279 220.469L52.9484 213.784Z" fill="#151516"/>
<path d="M60.4675 218.333L62.2694 219.793L59.3277 223.423L64.2825 227.439L67.2247 223.809L69.0266 225.269L61.7041 234.304L59.9022 232.844L62.9623 229.069L58.0075 225.053L54.9474 228.828L53.1455 227.368L60.4675 218.333Z" fill="#151516"/>
<path d="M71.3514 226.861L78.7355 231.584L77.6236 233.322L72.1929 229.849L70.769 232.076L75.783 235.282L74.6899 236.992L69.6759 233.785L68.1598 236.156L73.6765 239.684L72.5555 241.436L65.085 236.659L71.3514 226.861Z" fill="#151516"/>
<path d="M84.1033 234.837L86.3424 235.76L85.444 244.925L91.3723 237.832L93.7845 238.826L92.9806 248.03L98.7826 240.885L100.895 241.755L93.107 251.125L90.5371 250.066L91.2926 241.248L85.6017 248.034L83.0312 246.975L84.1033 234.837Z" fill="#151516"/>
<path d="M102.301 253.404C101.459 252.688 100.878 251.822 100.56 250.807C100.241 249.792 100.226 248.7 100.513 247.529C100.801 246.359 101.324 245.399 102.083 244.648C102.84 243.898 103.759 243.401 104.837 243.157C105.916 242.913 107.068 242.941 108.293 243.243C109.518 243.544 110.552 244.053 111.395 244.77C112.237 245.486 112.82 246.352 113.144 247.368C113.467 248.385 113.485 249.478 113.198 250.648C112.91 251.818 112.387 252.778 111.629 253.529C110.871 254.279 109.953 254.776 108.874 255.02C107.796 255.264 106.644 255.235 105.419 254.934C104.182 254.631 103.143 254.121 102.301 253.404ZM102.926 250.257C103.123 250.908 103.482 251.458 104.003 251.908C104.525 252.359 105.167 252.677 105.928 252.865C106.69 253.052 107.406 253.067 108.077 252.91C108.748 252.754 109.319 252.431 109.789 251.944C110.261 251.457 110.591 250.827 110.781 250.054C110.971 249.283 110.971 248.571 110.779 247.921C110.588 247.271 110.232 246.721 109.71 246.27C109.189 245.82 108.547 245.501 107.785 245.314C107.024 245.127 106.307 245.112 105.637 245.269C104.966 245.425 104.392 245.747 103.916 246.233C103.439 246.719 103.106 247.348 102.916 248.12C102.725 248.893 102.729 249.605 102.926 250.257Z" fill="#151516"/>
<path d="M116.876 245.315L122.77 246.008C123.662 246.113 124.425 246.372 125.057 246.783C125.69 247.195 126.152 247.716 126.445 248.345C126.737 248.975 126.839 249.662 126.752 250.407C126.631 251.435 126.2 252.252 125.46 252.857C124.719 253.463 123.76 253.759 122.582 253.747L124.293 254.532L126.393 258.144L123.599 257.815L121.275 253.628L118.277 253.276L117.823 257.137L115.521 256.866L116.876 245.315ZM122.023 251.638C122.667 251.714 123.205 251.611 123.638 251.33C124.072 251.049 124.321 250.637 124.385 250.096C124.449 249.554 124.302 249.096 123.945 248.722C123.588 248.348 123.088 248.123 122.445 248.047L118.939 247.635L118.517 251.226L122.023 251.638Z" fill="#151516"/>
<path d="M129.611 246.592L131.93 246.63L131.775 256.178L138.033 256.279L137.999 258.359L129.423 258.221L129.611 246.592Z" fill="#151516"/>
<path d="M140.286 246.676L145.108 246.216C146.421 246.091 147.592 246.22 148.622 246.602C149.652 246.983 150.471 247.585 151.08 248.406C151.689 249.227 152.05 250.227 152.162 251.404C152.274 252.581 152.108 253.627 151.664 254.543C151.22 255.459 150.531 256.199 149.597 256.761C148.663 257.324 147.534 257.669 146.209 257.794L141.388 258.253L140.286 246.676ZM146.031 255.739C147.298 255.618 148.254 255.199 148.9 254.48C149.546 253.763 149.813 252.815 149.7 251.638C149.587 250.45 149.145 249.561 148.376 248.972C147.605 248.383 146.587 248.149 145.319 248.269L142.791 248.51L143.501 255.979L146.031 255.739Z" fill="#151516"/>
<path d="M154.734 247.389C154.488 247.306 154.281 247.17 154.115 246.981C153.948 246.791 153.842 246.567 153.795 246.31C153.727 245.93 153.8 245.582 154.015 245.266C154.23 244.95 154.532 244.756 154.925 244.686C155.294 244.62 155.632 244.688 155.94 244.893C156.248 245.097 156.439 245.401 156.511 245.804C156.568 246.117 156.54 246.509 156.428 246.979L155.925 249.288L154.364 249.569L154.734 247.389Z" fill="#151516"/>
<path d="M162.414 254.676C161.432 254.377 160.703 253.826 160.225 253.022L162.205 251.753C162.556 252.25 163.017 252.568 163.587 252.708C164.158 252.849 164.851 252.814 165.665 252.603C166.512 252.384 167.108 252.098 167.451 251.746C167.795 251.393 167.91 250.997 167.796 250.556C167.702 250.193 167.505 249.942 167.205 249.802C166.905 249.662 166.504 249.622 166.002 249.681L163.316 249.986C162.256 250.108 161.367 249.964 160.651 249.556C159.935 249.148 159.462 248.498 159.232 247.606C159.059 246.935 159.078 246.293 159.29 245.681C159.502 245.068 159.913 244.522 160.523 244.041C161.133 243.561 161.927 243.194 162.907 242.941C164.195 242.609 165.285 242.577 166.176 242.846C167.067 243.115 167.765 243.589 168.27 244.269L166.389 245.583C166.086 245.18 165.683 244.917 165.182 244.794C164.68 244.671 164.094 244.696 163.422 244.869C162.641 245.07 162.086 245.346 161.76 245.694C161.433 246.043 161.323 246.426 161.431 246.845C161.608 247.527 162.24 247.816 163.328 247.711L166.047 247.396C167.085 247.281 167.951 247.436 168.642 247.863C169.334 248.289 169.793 248.942 170.02 249.822C170.299 250.902 170.116 251.855 169.473 252.685C168.83 253.514 167.716 254.133 166.131 254.543C164.633 254.93 163.394 254.974 162.414 254.676Z" fill="#151516"/>
<path d="M181.045 248.878C179.977 248.805 179.015 248.459 178.156 247.842C177.297 247.224 176.627 246.363 176.145 245.258C175.664 244.154 175.493 243.075 175.635 242.02C175.777 240.966 176.202 240.015 176.91 239.165C177.619 238.317 178.568 237.634 179.756 237.115C181.079 236.537 182.322 236.309 183.484 236.428C184.646 236.548 185.609 237.012 186.37 237.82L184.65 239.464C184.116 238.977 183.512 238.701 182.838 238.636C182.164 238.57 181.437 238.708 180.655 239.049C179.926 239.367 179.337 239.8 178.888 240.349C178.439 240.899 178.17 241.513 178.082 242.19C177.993 242.867 178.103 243.56 178.412 244.269C178.73 244.998 179.168 245.563 179.728 245.965C180.288 246.366 180.916 246.584 181.614 246.621C182.312 246.657 183.031 246.513 183.771 246.191C184.625 245.818 185.276 245.312 185.722 244.671C186.168 244.03 186.279 243.324 186.054 242.553L182.35 244.169L181.531 242.294L187.314 239.77L189.864 245.617L188.082 246.394L187.107 244.158L186.573 246.773C186.102 247.313 185.345 247.811 184.303 248.265C183.199 248.749 182.113 248.952 181.045 248.878Z" fill="#151516"/>
<path d="M190.659 231.842L193.414 230.203L203.422 237.78L201.224 239.089L199.235 237.514L194.209 240.506L194.63 243.013L192.52 244.269L190.659 231.842ZM197.523 236.171L192.906 232.55L193.86 238.352L197.523 236.171Z" fill="#151516"/>
<path d="M198.947 226.82L201.79 224.56L210.129 229.542L207.184 220.273L209.894 218.12L217.13 227.224L215.328 228.657L209.736 221.622L212.671 230.768L210.576 232.434L202.232 227.39L207.919 234.546L206.183 235.925L198.947 226.82Z" fill="#151516"/>
<path d="M211.829 216.145L217.961 209.882L219.436 211.325L214.926 215.931L216.815 217.781L220.978 213.527L222.428 214.947L218.265 219.2L220.275 221.168L224.857 216.489L226.343 217.945L220.14 224.281L211.829 216.145Z" fill="#151516"/>
<mask id="mask0_206_6626" style="mask-type:luminance" maskUnits="userSpaceOnUse" x="35" y="36" width="200" height="199">
<path d="M135 234.835C189.895 234.835 234.397 190.334 234.397 135.439C234.397 80.5434 189.895 36.042 135 36.042C80.1049 36.042 35.6035 80.5434 35.6035 135.439C35.6035 190.334 80.1049 234.835 135 234.835Z" fill="white"/>
</mask>
<g mask="url(#mask0_206_6626)">
<mask id="mask1_206_6626" style="mask-type:luminance" maskUnits="userSpaceOnUse" x="35" y="36" width="200" height="199">
<path d="M135 234.835C189.895 234.835 234.397 190.333 234.397 135.439C234.397 80.5436 189.895 36.0425 135 36.0425C80.1056 36.0425 35.6045 80.5436 35.6045 135.439C35.6045 190.333 80.1056 234.835 135 234.835Z" fill="white"/>
</mask>
<g mask="url(#mask1_206_6626)">
<mask id="mask2_206_6626" style="mask-type:luminance" maskUnits="userSpaceOnUse" x="35" y="36" width="200" height="199">
<path d="M135.001 234.47C189.702 234.47 234.046 190.126 234.046 135.426C234.046 80.7247 189.702 36.3809 135.001 36.3809C80.2999 36.3809 35.9561 80.7247 35.9561 135.426C35.9561 190.126 80.2999 234.47 135.001 234.47Z" fill="white"/>
</mask>
<g mask="url(#mask2_206_6626)">
<path d="M239.423 135.972H29.9609" stroke="#151516" stroke-width="1.9408" stroke-miterlimit="10"/>
</g>
<mask id="mask3_206_6626" style="mask-type:luminance" maskUnits="userSpaceOnUse" x="35" y="36" width="200" height="199">
<path d="M135.001 234.47C189.702 234.47 234.046 190.126 234.046 135.426C234.046 80.7247 189.702 36.3809 135.001 36.3809C80.2999 36.3809 35.9561 80.7247 35.9561 135.426C35.9561 190.126 80.2999 234.47 135.001 234.47Z" fill="white"/>
</mask>
<g mask="url(#mask3_206_6626)">
<path d="M134.692 240.727C192.534 240.727 239.423 193.837 239.423 135.996C239.423 78.1551 192.534 31.2656 134.692 31.2656C76.8514 31.2656 29.9619 78.1551 29.9619 135.996C29.9619 193.837 76.8514 240.727 134.692 240.727Z" stroke="#151516" stroke-width="1.9408" stroke-miterlimit="10"/>
</g>
<mask id="mask4_206_6626" style="mask-type:luminance" maskUnits="userSpaceOnUse" x="35" y="36" width="200" height="199">
<path d="M135.001 234.47C189.702 234.47 234.046 190.126 234.046 135.426C234.046 80.7247 189.702 36.3809 135.001 36.3809C80.2999 36.3809 35.9561 80.7247 35.9561 135.426C35.9561 190.126 80.2999 234.47 135.001 234.47Z" fill="white"/>
</mask>
<g mask="url(#mask4_206_6626)">
<path d="M236.8 107.182C236.8 107.182 224.509 91.8369 134.692 91.8369C44.875 91.8369 32.584 107.182 32.584 107.182" stroke="#151516" stroke-width="1.9408" stroke-miterlimit="10"/>
<path d="M239.423 122.313C239.423 122.313 226.817 112.692 134.692 112.692C42.5679 112.692 29.9609 122.313 29.9609 122.313" stroke="#151516" stroke-width="1.9408" stroke-miterlimit="10"/>
<path d="M232.126 92.2941C232.126 92.2941 222.847 83.0774 191.847 76.9618C177.755 74.1818 159.113 72.1602 134.693 72.1602C110.454 72.1602 91.8875 74.1727 77.814 76.943C46.7469 83.058 37.5684 92.864 37.5684 92.864" stroke="#151516" stroke-width="1.9408" stroke-miterlimit="10"/>
<path d="M229.051 83.7804C229.051 83.7804 201.766 56.0244 134.693 56.0244C76.2811 56.0244 43.3125 81.2987 43.3125 81.2987" stroke="#151516" stroke-width="1.9408" stroke-miterlimit="10"/>
<path d="M217.957 71.529C209.26 64.9596 191.46 52.4819 165.171 46.4756C157.676 44.7631 146.186 44.1084 134.693 44.1084C123.242 44.1084 113.601 44.3361 104.214 46.4756C75.8531 52.9402 62.7161 64.1672 51.3252 71.529" stroke="#151516" stroke-width="1.9408" stroke-miterlimit="10"/>
<path d="M208.385 61.5793C208.385 61.5793 184.344 36.1416 134.694 36.1416C87.0192 36.1416 61.002 61.5793 61.002 61.5793" stroke="#151516" stroke-width="1.9408" stroke-miterlimit="10"/>
</g>
<mask id="mask5_206_6626" style="mask-type:luminance" maskUnits="userSpaceOnUse" x="35" y="36" width="200" height="199">
<path d="M135.001 234.47C189.702 234.47 234.046 190.126 234.046 135.426C234.046 80.7247 189.702 36.3809 135.001 36.3809C80.2999 36.3809 35.9561 80.7247 35.9561 135.426C35.9561 190.126 80.2999 234.47 135.001 234.47Z" fill="white"/>
</mask>
<g mask="url(#mask5_206_6626)">
<path d="M108.582 238.814C108.582 238.814 128.214 235.956 173.122 158.172C218.03 80.3886 210.69 61.9575 210.69 61.9575" stroke="#151516" stroke-width="1.9408" stroke-miterlimit="10"/>
<path d="M96.1387 234.658C96.1387 234.658 107.815 226.843 153.877 147.061C199.94 67.2788 200.87 53.2588 200.87 53.2588" stroke="#151516" stroke-width="1.9408" stroke-miterlimit="10"/>
<path d="M123.474 241.657C123.474 241.657 150.893 235.572 189.966 167.897C196.826 156.014 202.262 145.403 206.449 135.934C225.622 92.5685 218.673 68.6167 218.673 68.6167" stroke="#151516" stroke-width="1.9408" stroke-miterlimit="10"/>
<path d="M136.361 242.464C136.361 242.464 166.569 239.285 203.33 175.612C216.848 152.198 223.922 133.298 226.751 118.773C231.778 92.9663 221.357 76.0815 220.799 75.0459" stroke="#151516" stroke-width="1.9408" stroke-miterlimit="10"/>
<path d="M155.031 240.049C155.031 240.049 185.662 227.715 214.691 180.658C220.476 171.279 224.646 162.391 227.874 154.285C242.125 118.502 227.872 91.603 227.872 91.603" stroke="#151516" stroke-width="1.9408" stroke-miterlimit="10"/>
<path d="M177.194 231.953C177.194 231.953 202.029 223.686 223.17 187.068C244.024 150.947 239.054 124.81 239.054 124.81" stroke="#151516" stroke-width="1.9408" stroke-miterlimit="10"/>
<path d="M187.048 45.2783L82.3164 226.678" stroke="#151516" stroke-width="1.9408" stroke-miterlimit="10"/>
<path d="M160.803 33.1543C160.803 33.1543 141.171 36.0123 96.2632 113.796C51.3548 191.579 58.6956 210.011 58.6956 210.011" stroke="#151516" stroke-width="1.9408" stroke-miterlimit="10"/>
<path d="M173.246 37.3101C173.246 37.3101 161.57 45.1257 115.508 124.908C69.4453 204.689 68.5156 218.709 68.5156 218.709" stroke="#151516" stroke-width="1.9408" stroke-miterlimit="10"/>
<path d="M145.911 30.3115C145.911 30.3115 118.492 36.3964 79.4188 104.072C40.5458 171.403 48.7861 198.537 48.7861 198.537" stroke="#151516" stroke-width="1.9408" stroke-miterlimit="10"/>
<path d="M133.024 29.5039C133.024 29.5039 102.816 32.683 66.0548 96.356C29.4812 159.703 41.6436 187.779 41.6436 187.779" stroke="#151516" stroke-width="1.9408" stroke-miterlimit="10"/>
<path d="M114.353 31.9194C95.2546 42.7359 90.1996 46.3955 72.935 66.0808C57.3175 83.8873 50.8113 100.164 43.1369 118.029C29.7711 149.145 34.4002 170.401 34.4002 170.401" stroke="#151516" stroke-width="1.9408" stroke-miterlimit="10"/>
<path d="M92.1897 40.0151C92.1897 40.0151 67.3555 48.2822 46.2139 84.9001C25.3598 121.021 30.3305 147.158 30.3305 147.158" stroke="#151516" stroke-width="1.9408" stroke-miterlimit="10"/>
</g>
<mask id="mask6_206_6626" style="mask-type:luminance" maskUnits="userSpaceOnUse" x="35" y="36" width="200" height="199">
<path d="M135.001 234.47C189.702 234.47 234.046 190.126 234.046 135.426C234.046 80.7247 189.702 36.3809 135.001 36.3809C80.2999 36.3809 35.9561 80.7247 35.9561 135.426C35.9561 190.126 80.2999 234.47 135.001 234.47Z" fill="white"/>
</mask>
<g mask="url(#mask6_206_6626)">
<path d="M160.803 238.814C160.803 238.814 141.171 235.956 96.2632 158.172C51.3548 80.3886 58.6956 61.9575 58.6956 61.9575" stroke="#151516" stroke-width="1.9408" stroke-miterlimit="10"/>
<path d="M173.246 234.658C173.246 234.658 161.57 226.843 115.508 147.061C69.4453 67.2788 68.5156 53.2588 68.5156 53.2588" stroke="#151516" stroke-width="1.9408" stroke-miterlimit="10"/>
<path d="M145.912 241.657C145.912 241.657 118.492 235.572 79.4194 167.896C67.3538 146.998 58.9963 130.23 55.1841 116.429C47.9418 90.2101 49.8707 70.3848 49.8707 70.3848" stroke="#151516" stroke-width="1.9408" stroke-miterlimit="10"/>
<path d="M133.024 242.464C133.024 242.464 102.816 239.285 66.055 175.612C57.2738 160.402 51.3142 147.222 47.2971 135.984C37.8681 109.607 44.9413 81.7974 44.9413 81.7974" stroke="#151516" stroke-width="1.9408" stroke-miterlimit="10"/>
<path d="M114.354 240.048C114.354 240.048 82.7 228.449 55.3751 181.121C28.4207 134.434 34.4008 101.566 34.4008 101.566" stroke="#151516" stroke-width="1.9408" stroke-miterlimit="10"/>
<path d="M92.1897 231.953C92.1897 231.953 67.3555 223.686 46.2139 187.068C25.3598 150.947 30.3305 124.81 30.3305 124.81" stroke="#151516" stroke-width="1.9408" stroke-miterlimit="10"/>
<path d="M82.3369 45.2783L187.068 226.678" stroke="#151516" stroke-width="1.9408" stroke-miterlimit="10"/>
<path d="M108.582 33.1543C108.582 33.1543 128.214 36.0123 173.122 113.796C218.03 191.579 210.69 210.011 210.69 210.011" stroke="#151516" stroke-width="1.9408" stroke-miterlimit="10"/>
<path d="M96.1387 37.3101C96.1387 37.3101 107.815 45.1257 153.877 124.908C199.94 204.689 200.87 218.709 200.87 218.709" stroke="#151516" stroke-width="1.9408" stroke-miterlimit="10"/>
<path d="M123.474 30.311C123.474 30.311 150.893 36.3959 189.966 104.072C228.839 171.402 220.599 198.536 220.599 198.536" stroke="#151516" stroke-width="1.9408" stroke-miterlimit="10"/>
<path d="M136.361 29.5039C136.361 29.5039 166.569 32.683 203.33 96.356C239.904 159.704 227.741 187.779 227.741 187.779" stroke="#151516" stroke-width="1.9408" stroke-miterlimit="10"/>
<path d="M155.031 31.9194C159.864 41.9463 174.894 39.074 196.794 65.635C202.499 72.555 208.686 80.6006 214.01 90.5626C243.947 146.579 239.092 174.782 239.092 174.782" stroke="#151516" stroke-width="1.9408" stroke-miterlimit="10"/>
<path d="M177.194 40.0151C177.194 40.0151 202.029 48.2822 223.17 84.9001C244.024 121.021 239.054 147.158 239.054 147.158" stroke="#151516" stroke-width="1.9408" stroke-miterlimit="10"/>
</g>
<mask id="mask7_206_6626" style="mask-type:luminance" maskUnits="userSpaceOnUse" x="35" y="36" width="200" height="199">
<path d="M135.001 234.47C189.702 234.47 234.046 190.126 234.046 135.426C234.046 80.7247 189.702 36.3809 135.001 36.3809C80.2999 36.3809 35.9561 80.7247 35.9561 135.426C35.9561 190.126 80.2999 234.47 135.001 234.47Z" fill="white"/>
</mask>
<g mask="url(#mask7_206_6626)">
<path d="M236.8 164.787C236.8 164.787 224.509 180.132 134.692 180.132C44.875 180.132 32.584 164.787 32.584 164.787" stroke="#151516" stroke-width="1.9408" stroke-miterlimit="10"/>
<path d="M239.423 151.933C239.423 151.933 226.817 158.137 134.692 158.137C42.5673 158.137 29.9609 151.933 29.9609 151.933" stroke="#151516" stroke-width="1.9408" stroke-miterlimit="10"/>
<path d="M231.817 179.105C231.817 179.105 212.838 199.809 134.692 199.809C56.9458 199.809 37.5674 179.105 37.5674 179.105" stroke="#151516" stroke-width="1.9408" stroke-miterlimit="10"/>
<path d="M226.073 190.669C226.073 190.669 192.919 215.944 134.693 215.944C76.2811 215.944 43.3125 192.093 43.3125 192.093" stroke="#151516" stroke-width="1.9408" stroke-miterlimit="10"/>
<path d="M217.957 200.439C209.26 207.008 191.46 219.486 165.171 225.492C157.676 227.205 146.186 227.86 134.693 227.86C123.242 227.86 113.601 227.632 104.214 225.492C75.8531 219.028 62.7161 207.801 51.3252 200.439" stroke="#151516" stroke-width="1.9408" stroke-miterlimit="10"/>
<path d="M208.385 210.389C208.385 210.389 184.344 235.826 134.694 235.826C87.0192 235.826 61.002 210.389 61.002 210.389" stroke="#151516" stroke-width="1.9408" stroke-miterlimit="10"/>
</g>
</g>
<mask id="mask8_206_6626" style="mask-type:luminance" maskUnits="userSpaceOnUse" x="35" y="36" width="200" height="199">
<path d="M135 234.835C189.895 234.835 234.397 190.333 234.397 135.439C234.397 80.5436 189.895 36.0425 135 36.0425C80.1056 36.0425 35.6045 80.5436 35.6045 135.439C35.6045 190.333 80.1056 234.835 135 234.835Z" fill="white"/>
</mask>
<g mask="url(#mask8_206_6626)">
<path d="M135.001 234.47C189.702 234.47 234.046 190.126 234.046 135.426C234.046 80.7247 189.702 36.3809 135.001 36.3809C80.2999 36.3809 35.9561 80.7247 35.9561 135.426C35.9561 190.126 80.2999 234.47 135.001 234.47Z" stroke="#151516" stroke-width="1.1899" stroke-miterlimit="10"/>
</g>
<mask id="mask9_206_6626" style="mask-type:luminance" maskUnits="userSpaceOnUse" x="35" y="36" width="200" height="199">
<path d="M135 234.835C189.895 234.835 234.397 190.333 234.397 135.439C234.397 80.5436 189.895 36.0425 135 36.0425C80.1056 36.0425 35.6045 80.5436 35.6045 135.439C35.6045 190.333 80.1056 234.835 135 234.835Z" fill="white"/>
</mask>
<g mask="url(#mask9_206_6626)">
<path d="M60.6758 81.0416C60.6758 81.0416 90.59 72.1597 135.41 72.1597C184.041 72.1597 208.684 81.1315 208.684 81.1315C208.684 81.1315 198.455 113.601 177.389 150.682C151.83 195.674 134.585 215.944 134.585 215.944C134.585 215.944 106.893 178.947 86.0975 139.953C66.4976 103.201 60.6758 81.0416 60.6758 81.0416Z" fill="#151516"/>
</g>
<mask id="mask10_206_6626" style="mask-type:luminance" maskUnits="userSpaceOnUse" x="35" y="36" width="200" height="199">
<path d="M135 234.835C189.895 234.835 234.397 190.333 234.397 135.439C234.397 80.5436 189.895 36.0425 135 36.0425C80.1056 36.0425 35.6045 80.5436 35.6045 135.439C35.6045 190.333 80.1056 234.835 135 234.835Z" fill="white"/>
</mask>
<g mask="url(#mask10_206_6626)">
<path d="M99.1569 80.4609C88.6666 81.5535 78.5055 82.9437 67.8672 84.9056C71.0104 92.9791 74.6523 101.65 79.352 110.557C85.9618 100.794 92.6991 90.695 99.1569 80.4609Z" fill="#FCFCF7"/>
<path d="M99.7809 79.501C89.0942 80.5571 81.0702 81.6268 67.8672 84.9055C70.8533 93.6627 74.0454 101.993 78.5129 111.795C85.3498 101.312 93.3231 89.735 99.7809 79.501Z" fill="#FCFCF7"/>
<path d="M151.08 78.1633C138.386 77.6424 127.93 77.8541 114.036 78.4297C108.455 78.6609 103.124 82.6142 99.6654 88.0483C93.9477 97.0914 86.6252 108.27 80.8643 116.938C83.7837 123.064 86.9275 129.796 90.4379 136.144C92.5814 132.685 96.8342 125.624 99.0215 122.1C108.476 121.82 117.926 121.648 127.376 121.585C131.129 115.176 134.832 108.764 138.383 102.39C129.212 102.344 120.043 102.51 110.864 102.885C111.952 101.089 113.034 99.2901 114.11 97.4893C123.187 97.117 132.253 96.9838 141.322 97.0857C144.781 90.7384 148.064 84.3694 151.08 78.1633Z" fill="#FCFCF7"/>
<path d="M112.604 174.413C119.678 186.173 127.836 197.223 134.754 206.667C152.322 183.316 167.085 158.175 180.459 133.259C173 133.138 165.541 133.05 158.083 132.991C151.373 144.55 142.232 157.757 135.505 169.469C134.483 167.695 133.456 165.917 132.423 164.139C144.898 142.504 159.377 119.194 169.734 98.7886C171.709 98.9127 173.686 99.0471 175.663 99.194C171.018 108.428 166.443 117.991 160.83 127.75C168.264 127.854 175.699 128.008 183.134 128.208C191.719 112.225 196.304 98.7266 201.483 85.4746C189.954 81.7347 178.069 80.0837 165.686 78.9895C160.19 78.4913 155.38 81.3834 152.803 86.4692C141.863 108.194 125.228 134.951 112.433 157.032C109.417 162.22 109.416 169.119 112.604 174.413Z" fill="#FCFCF7"/>
<path d="M160.829 127.75C168.263 127.854 175.698 128.008 183.133 128.208C192.441 110.219 196.774 99.1462 201.482 85.4746" fill="#FCFCF7"/>
</g>
</g>
<path d="M135 234.114C189.739 234.114 234.114 189.739 234.114 135C234.114 80.2607 189.739 35.8857 135 35.8857C80.2607 35.8857 35.8857 80.2607 35.8857 135C35.8857 189.739 80.2607 234.114 135 234.114Z" stroke="#151516" stroke-width="1.9823" stroke-miterlimit="10"/>
</svg>
